<svg xmlns="http://www.w3.org/2000/svg" viewBox="0 0 1100 180" width="100%" height="auto" style="background: #0D0D11; font-family: -apple-system, BlinkMacSystemFont, 'Segoe UI', Roboto, sans-serif; border-radius: 12px; border: 1px solid rgba(255,107,0,0.15);">
  <defs>
    <linearGradient id="workflowGrad" x1="0%" y1="0%" x2="100%" y2="0%">
      <stop offset="0%" stop-color="#FF8A00" />
      <stop offset="100%" stop-color="#FF5500" />
    </linearGradient>
    <filter id="workflowShadow" x="-10%" y="-10%" width="120%" height="120%">
      <feDropShadow dx="0" dy="4" stdDeviation="5" flood-color="#000000" flood-opacity="0.4" />
    </filter>
  </defs>

  <!-- Background Grid -->
  <rect width="1100" height="180" rx="12" fill="#0D0D11" />
  
  <g opacity="0.02">
    <path d="M0,30 L1100,30 M0,60 L1100,60 M0,90 L1100,90 M0,120 L1100,120 M0,150 L1100,150" stroke="#FFFFFF" stroke-width="1" />
    <path d="M110,0 L110,180 M220,0 L220,180 M330,0 L330,180 M440,0 L440,180 M550,0 L550,180 M660,0 L660,180 M770,0 L770,180 M880,0 L880,180 M990,0 L990,180" stroke="#FFFFFF" stroke-width="1" />
  </g>

  <!-- Flow Connecting Line -->
  <path d="M 120,90 L 980,90" stroke="url(#workflowGrad)" stroke-width="2" stroke-dasharray="6,4" opacity="0.4" />

  <!-- Steps -->
  
      <!-- Connecting arrow -->
      
        <g transform="translate(185, 84)" opacity="0.7">
          <path d="M 0,6 L 15,6 M 10,1 L 15,6 L 10,11" stroke="#FF6B00" stroke-width="2" fill="none" />
        </g>
      

      <g transform="translate(110, 35)" filter="url(#workflowShadow)">
        <!-- Step Card Outer -->
        <rect x="-65" y="0" width="130" height="110" rx="10" fill="#14141A" stroke="rgba(255,107,0,0.15)" stroke-width="1" />
        <!-- Glowing Dot on flow line -->
        <circle cx="0" cy="55" r="4" fill="#FF6B00" />
        <circle cx="0" cy="55" r="7" fill="none" stroke="#FF6B00" stroke-width="1" opacity="0.5" />
        
        <!-- Icon -->
        <text x="0" y="32" font-size="22" text-anchor="middle">💡</text>
        
        <!-- Title -->
        <text x="0" y="65" fill="#FFFFFF" font-size="12" font-weight="800" text-anchor="middle" letter-spacing="1">IDEA</text>
        
        <!-- Description -->
        <text x="0" y="85" fill="#7F7F8F" font-size="9" font-weight="500" text-anchor="middle">
          Scope & Architecture
        </text>
      </g>
    
      <!-- Connecting arrow -->
      
        <g transform="translate(360, 84)" opacity="0.7">
          <path d="M 0,6 L 15,6 M 10,1 L 15,6 L 10,11" stroke="#FF6B00" stroke-width="2" fill="none" />
        </g>
      

      <g transform="translate(285, 35)" filter="url(#workflowShadow)">
        <!-- Step Card Outer -->
        <rect x="-65" y="0" width="130" height="110" rx="10" fill="#14141A" stroke="rgba(255,107,0,0.15)" stroke-width="1" />
        <!-- Glowing Dot on flow line -->
        <circle cx="0" cy="55" r="4" fill="#FF6B00" />
        <circle cx="0" cy="55" r="7" fill="none" stroke="#FF6B00" stroke-width="1" opacity="0.5" />
        
        <!-- Icon -->
        <text x="0" y="32" font-size="22" text-anchor="middle">🎨</text>
        
        <!-- Title -->
        <text x="0" y="65" fill="#FFFFFF" font-size="12" font-weight="800" text-anchor="middle" letter-spacing="1">DESIGN</text>
        
        <!-- Description -->
        <text x="0" y="85" fill="#7F7F8F" font-size="9" font-weight="500" text-anchor="middle">
          Figma & Interaction
        </text>
      </g>
    
      <!-- Connecting arrow -->
      
        <g transform="translate(535, 84)" opacity="0.7">
          <path d="M 0,6 L 15,6 M 10,1 L 15,6 L 10,11" stroke="#FF6B00" stroke-width="2" fill="none" />
        </g>
      

      <g transform="translate(460, 35)" filter="url(#workflowShadow)">
        <!-- Step Card Outer -->
        <rect x="-65" y="0" width="130" height="110" rx="10" fill="#14141A" stroke="rgba(255,107,0,0.15)" stroke-width="1" />
        <!-- Glowing Dot on flow line -->
        <circle cx="0" cy="55" r="4" fill="#FF6B00" />
        <circle cx="0" cy="55" r="7" fill="none" stroke="#FF6B00" stroke-width="1" opacity="0.5" />
        
        <!-- Icon -->
        <text x="0" y="32" font-size="22" text-anchor="middle">💻</text>
        
        <!-- Title -->
        <text x="0" y="65" fill="#FFFFFF" font-size="12" font-weight="800" text-anchor="middle" letter-spacing="1">DEVELOP</text>
        
        <!-- Description -->
        <text x="0" y="85" fill="#7F7F8F" font-size="9" font-weight="500" text-anchor="middle">
          Clean & Scalable Code
        </text>
      </g>
    
      <!-- Connecting arrow -->
      
        <g transform="translate(710, 84)" opacity="0.7">
          <path d="M 0,6 L 15,6 M 10,1 L 15,6 L 10,11" stroke="#FF6B00" stroke-width="2" fill="none" />
        </g>
      

      <g transform="translate(635, 35)" filter="url(#workflowShadow)">
        <!-- Step Card Outer -->
        <rect x="-65" y="0" width="130" height="110" rx="10" fill="#14141A" stroke="rgba(255,107,0,0.15)" stroke-width="1" />
        <!-- Glowing Dot on flow line -->
        <circle cx="0" cy="55" r="4" fill="#FF6B00" />
        <circle cx="0" cy="55" r="7" fill="none" stroke="#FF6B00" stroke-width="1" opacity="0.5" />
        
        <!-- Icon -->
        <text x="0" y="32" font-size="22" text-anchor="middle">🧪</text>
        
        <!-- Title -->
        <text x="0" y="65" fill="#FFFFFF" font-size="12" font-weight="800" text-anchor="middle" letter-spacing="1">TEST</text>
        
        <!-- Description -->
        <text x="0" y="85" fill="#7F7F8F" font-size="9" font-weight="500" text-anchor="middle">
          QA & Verification
        </text>
      </g>
    
      <!-- Connecting arrow -->
      
        <g transform="translate(885, 84)" opacity="0.7">
          <path d="M 0,6 L 15,6 M 10,1 L 15,6 L 10,11" stroke="#FF6B00" stroke-width="2" fill="none" />
        </g>
      

      <g transform="translate(810, 35)" filter="url(#workflowShadow)">
        <!-- Step Card Outer -->
        <rect x="-65" y="0" width="130" height="110" rx="10" fill="#14141A" stroke="rgba(255,107,0,0.15)" stroke-width="1" />
        <!-- Glowing Dot on flow line -->
        <circle cx="0" cy="55" r="4" fill="#FF6B00" />
        <circle cx="0" cy="55" r="7" fill="none" stroke="#FF6B00" stroke-width="1" opacity="0.5" />
        
        <!-- Icon -->
        <text x="0" y="32" font-size="22" text-anchor="middle">🚀</text>
        
        <!-- Title -->
        <text x="0" y="65" fill="#FFFFFF" font-size="12" font-weight="800" text-anchor="middle" letter-spacing="1">DEPLOY</text>
        
        <!-- Description -->
        <text x="0" y="85" fill="#7F7F8F" font-size="9" font-weight="500" text-anchor="middle">
          CI/CD & Cloud Ingress
        </text>
      </g>
    
      <!-- Connecting arrow -->
      

      <g transform="translate(985, 35)" filter="url(#workflowShadow)">
        <!-- Step Card Outer -->
        <rect x="-65" y="0" width="130" height="110" rx="10" fill="#14141A" stroke="rgba(255,107,0,0.15)" stroke-width="1" />
        <!-- Glowing Dot on flow line -->
        <circle cx="0" cy="55" r="4" fill="#FF6B00" />
        <circle cx="0" cy="55" r="7" fill="none" stroke="#FF6B00" stroke-width="1" opacity="0.5" />
        
        <!-- Icon -->
        <text x="0" y="32" font-size="22" text-anchor="middle">🛠️</text>
        
        <!-- Title -->
        <text x="0" y="65" fill="#FFFFFF" font-size="12" font-weight="800" text-anchor="middle" letter-spacing="1">MAINTAIN</text>
        
        <!-- Description -->
        <text x="0" y="85" fill="#7F7F8F" font-size="9" font-weight="500" text-anchor="middle">
          Monitoring & Scaling
        </text>
      </g>
    
</svg>