<svg xmlns="http://www.w3.org/2000/svg" viewBox="0 0 1100 180" width="100%" height="auto">
  <defs>
    <linearGradient id="workflowGrad" x1="0%" y1="0%" x2="100%" y2="0%">
      <stop offset="0%" stop-color="#FF8A00" />
      <stop offset="100%" stop-color="#FF5500" />
    </linearGradient>
  </defs>

  <!-- Background -->
  <rect width="1100" height="180" rx="12" fill="#FAF9F6" stroke="#FF6B00" stroke-opacity="0.1" stroke-width="1" />
  
  <!-- Subtle grid pattern -->
  <g opacity="0.04">
    <path d="M0,30 L1100,30 M0,60 L1100,60 M0,90 L1100,90 M0,120 L1100,120 M0,150 L1100,150" stroke="#000000" stroke-width="1" />
    <path d="M110,0 L110,180 M220,0 L220,180 M330,0 L330,180 M440,0 L440,180 M550,0 L550,180 M660,0 L660,180 M770,0 L770,180 M880,0 L880,180 M990,0 L990,180" stroke="#000000" stroke-width="1" />
  </g>

  <!-- Flow Connecting Line -->
  <path d="M 120,90 L 980,90" stroke="url(#workflowGrad)" stroke-width="2" stroke-dasharray="6,4" opacity="0.3" />

  <!-- Steps -->
  
      <!-- Connecting arrow -->
      
        <g transform="translate(185, 84)" opacity="0.6">
          <path d="M 0,6 L 15,6 M 10,1 L 15,6 L 10,11" stroke="#FF6B00" stroke-width="2" fill="none" />
        </g>
      

      <g transform="translate(110, 35)">
        <!-- Shadow plate -->
        <rect x="-63" y="2" width="130" height="110" rx="10" fill="#000000" fill-opacity="0.06" />
        <!-- Card outer -->
        <rect x="-65" y="0" width="130" height="110" rx="10" fill="#FFFFFF" stroke="#FF6B00" stroke-opacity="0.12" stroke-width="1" />
        <!-- Glowing Node on flow line -->
        <circle cx="0" cy="55" r="4" fill="#FF6B00" />
        <circle cx="0" cy="55" r="7" fill="none" stroke="#FF6B00" stroke-width="1" stroke-opacity="0.5" />
        
        <!-- Vector Icon -->
        <g transform="translate(-10, 12)" stroke="url(#workflowGrad)" stroke-width="1.5" fill="none">
        <path d="M 10 2 C 5.5 2, 2 5.5, 2 10 C 2 13, 4 15, 5 16.5 C 6 18, 6 20, 10 20 C 14 20, 14 18, 15 16.5 C 16 15, 18 13, 18 10 C 18 5.5, 14.5 2, 10 2 Z" />
        <path d="M 7 20 L 13 20" />
      </g>
        
        <!-- Title -->
        <text x="0" y="65" fill="#18181B" font-family="Arial, Helvetica, sans-serif" font-size="12" font-weight="bold" text-anchor="middle" letter-spacing="1">IDEA</text>
        
        <!-- Description -->
        <text x="0" y="85" fill="#52525B" font-family="Arial, Helvetica, sans-serif" font-size="9" font-weight="bold" text-anchor="middle">
          Scope &amp; Architecture
        </text>
      </g>
    
      <!-- Connecting arrow -->
      
        <g transform="translate(360, 84)" opacity="0.6">
          <path d="M 0,6 L 15,6 M 10,1 L 15,6 L 10,11" stroke="#FF6B00" stroke-width="2" fill="none" />
        </g>
      

      <g transform="translate(285, 35)">
        <!-- Shadow plate -->
        <rect x="-63" y="2" width="130" height="110" rx="10" fill="#000000" fill-opacity="0.06" />
        <!-- Card outer -->
        <rect x="-65" y="0" width="130" height="110" rx="10" fill="#FFFFFF" stroke="#FF6B00" stroke-opacity="0.12" stroke-width="1" />
        <!-- Glowing Node on flow line -->
        <circle cx="0" cy="55" r="4" fill="#FF6B00" />
        <circle cx="0" cy="55" r="7" fill="none" stroke="#FF6B00" stroke-width="1" stroke-opacity="0.5" />
        
        <!-- Vector Icon -->
        <g transform="translate(-10, 12)" stroke="url(#workflowGrad)" stroke-width="1.5" fill="none">
        <path d="M 12 2 C 6.5 2, 2 6.5, 2 12 C 2 17.5, 6.5 22, 12 22 C 14.5 22, 16 20.5, 16 19 C 16 18.2, 15.4 17.5, 14.6 17.5 L 13 17.5 C 12.2 17.5, 11.5 16.8, 11.5 16 L 14.9 12 C 16 11, 18 10, 18 7.5 C 18 4.5, 15.3 2, 12 2 Z" />
        <circle cx="6" cy="10" r="1.5" fill="#FF8A00" stroke="none" />
        <circle cx="10" cy="7" r="1.5" fill="#FF5500" stroke="none" />
        <circle cx="14" cy="9" r="1.5" fill="#00C6FF" stroke="none" />
      </g>
        
        <!-- Title -->
        <text x="0" y="65" fill="#18181B" font-family="Arial, Helvetica, sans-serif" font-size="12" font-weight="bold" text-anchor="middle" letter-spacing="1">DESIGN</text>
        
        <!-- Description -->
        <text x="0" y="85" fill="#52525B" font-family="Arial, Helvetica, sans-serif" font-size="9" font-weight="bold" text-anchor="middle">
          Figma &amp; Interaction
        </text>
      </g>
    
      <!-- Connecting arrow -->
      
        <g transform="translate(535, 84)" opacity="0.6">
          <path d="M 0,6 L 15,6 M 10,1 L 15,6 L 10,11" stroke="#FF6B00" stroke-width="2" fill="none" />
        </g>
      

      <g transform="translate(460, 35)">
        <!-- Shadow plate -->
        <rect x="-63" y="2" width="130" height="110" rx="10" fill="#000000" fill-opacity="0.06" />
        <!-- Card outer -->
        <rect x="-65" y="0" width="130" height="110" rx="10" fill="#FFFFFF" stroke="#FF6B00" stroke-opacity="0.12" stroke-width="1" />
        <!-- Glowing Node on flow line -->
        <circle cx="0" cy="55" r="4" fill="#FF6B00" />
        <circle cx="0" cy="55" r="7" fill="none" stroke="#FF6B00" stroke-width="1" stroke-opacity="0.5" />
        
        <!-- Vector Icon -->
        <g transform="translate(-10, 12)" stroke="url(#workflowGrad)" stroke-width="1.5" fill="none">
        <path d="M 6 6 L 2 10 L 6 14 M 14 6 L 18 10 L 14 14 M 11 4 L 9 16" />
      </g>
        
        <!-- Title -->
        <text x="0" y="65" fill="#18181B" font-family="Arial, Helvetica, sans-serif" font-size="12" font-weight="bold" text-anchor="middle" letter-spacing="1">DEVELOP</text>
        
        <!-- Description -->
        <text x="0" y="85" fill="#52525B" font-family="Arial, Helvetica, sans-serif" font-size="9" font-weight="bold" text-anchor="middle">
          Clean &amp; Scalable Code
        </text>
      </g>
    
      <!-- Connecting arrow -->
      
        <g transform="translate(710, 84)" opacity="0.6">
          <path d="M 0,6 L 15,6 M 10,1 L 15,6 L 10,11" stroke="#FF6B00" stroke-width="2" fill="none" />
        </g>
      

      <g transform="translate(635, 35)">
        <!-- Shadow plate -->
        <rect x="-63" y="2" width="130" height="110" rx="10" fill="#000000" fill-opacity="0.06" />
        <!-- Card outer -->
        <rect x="-65" y="0" width="130" height="110" rx="10" fill="#FFFFFF" stroke="#FF6B00" stroke-opacity="0.12" stroke-width="1" />
        <!-- Glowing Node on flow line -->
        <circle cx="0" cy="55" r="4" fill="#FF6B00" />
        <circle cx="0" cy="55" r="7" fill="none" stroke="#FF6B00" stroke-width="1" stroke-opacity="0.5" />
        
        <!-- Vector Icon -->
        <g transform="translate(-10, 12)" stroke="url(#workflowGrad)" stroke-width="1.5" fill="none">
        <path d="M 6 3 L 14 3 M 8 3 L 8 8 L 4 16 C 3 18, 4 20, 6 20 L 14 20 C 16 20, 17 18, 16 16 L 12 8 L 12 3" />
        <path d="M 5 15 L 15 15 C 16 17, 15 19, 14 19 L 6 19 C 5 19, 4 17, 5 15 Z" fill="#FF6B00" fill-opacity="0.2" />
      </g>
        
        <!-- Title -->
        <text x="0" y="65" fill="#18181B" font-family="Arial, Helvetica, sans-serif" font-size="12" font-weight="bold" text-anchor="middle" letter-spacing="1">TEST</text>
        
        <!-- Description -->
        <text x="0" y="85" fill="#52525B" font-family="Arial, Helvetica, sans-serif" font-size="9" font-weight="bold" text-anchor="middle">
          QA &amp; Verification
        </text>
      </g>
    
      <!-- Connecting arrow -->
      
        <g transform="translate(885, 84)" opacity="0.6">
          <path d="M 0,6 L 15,6 M 10,1 L 15,6 L 10,11" stroke="#FF6B00" stroke-width="2" fill="none" />
        </g>
      

      <g transform="translate(810, 35)">
        <!-- Shadow plate -->
        <rect x="-63" y="2" width="130" height="110" rx="10" fill="#000000" fill-opacity="0.06" />
        <!-- Card outer -->
        <rect x="-65" y="0" width="130" height="110" rx="10" fill="#FFFFFF" stroke="#FF6B00" stroke-opacity="0.12" stroke-width="1" />
        <!-- Glowing Node on flow line -->
        <circle cx="0" cy="55" r="4" fill="#FF6B00" />
        <circle cx="0" cy="55" r="7" fill="none" stroke="#FF6B00" stroke-width="1" stroke-opacity="0.5" />
        
        <!-- Vector Icon -->
        <g transform="translate(-10, 12)" stroke="url(#workflowGrad)" stroke-width="1.5" fill="none">
        <path d="M 10 2 C 10 2, 6 7, 6 13 C 6 16, 4 18, 4 18 L 10 16 L 16 18 C 16 18, 14 16, 14 13 C 14 7, 10 2, 10 2 Z M 7 14 C 7 14, 10 12, 10 12 C 10 12, 13 14, 13 14" />
      </g>
        
        <!-- Title -->
        <text x="0" y="65" fill="#18181B" font-family="Arial, Helvetica, sans-serif" font-size="12" font-weight="bold" text-anchor="middle" letter-spacing="1">DEPLOY</text>
        
        <!-- Description -->
        <text x="0" y="85" fill="#52525B" font-family="Arial, Helvetica, sans-serif" font-size="9" font-weight="bold" text-anchor="middle">
          CI/CD &amp; Cloud Ingress
        </text>
      </g>
    
      <!-- Connecting arrow -->
      

      <g transform="translate(985, 35)">
        <!-- Shadow plate -->
        <rect x="-63" y="2" width="130" height="110" rx="10" fill="#000000" fill-opacity="0.06" />
        <!-- Card outer -->
        <rect x="-65" y="0" width="130" height="110" rx="10" fill="#FFFFFF" stroke="#FF6B00" stroke-opacity="0.12" stroke-width="1" />
        <!-- Glowing Node on flow line -->
        <circle cx="0" cy="55" r="4" fill="#FF6B00" />
        <circle cx="0" cy="55" r="7" fill="none" stroke="#FF6B00" stroke-width="1" stroke-opacity="0.5" />
        
        <!-- Vector Icon -->
        <g transform="translate(-10, 12)" stroke="url(#workflowGrad)" stroke-width="1.5" fill="none">
        <circle cx="10" cy="10" r="3" />
        <path d="M 19 10.5 L 17 10.5 C 16.8 9.7, 16.5 9, 16 8.3 L 17.4 6.9 C 17.6 6.7, 17.6 6.3, 17.4 6.1 L 15.9 4.6 C 15.7 4.4, 15.3 4.4, 15.1 4.6 L 13.7 6 C 13 5.5, 12.3 5.2, 11.5 5 L 11.5 3 C 11.5 2.7, 11.3 2.5, 11 2.5 L 9 2.5 C 8.7 2.5, 8.5 2.7, 8.5 3 L 8.5 5 C 7.7 5.2, 7 5.5, 6.3 6 L 4.9 4.6 C 4.7 4.4, 4.3 4.4, 4.1 4.6 L 2.6 6.1 C 2.4 6.3, 2.4 6.7, 2.6 6.9 L 4 8.3 C 3.5 9, 3.2 9.7, 3 10.5 L 1 10.5 C 0.7 10.5, 0.5 10.7, 0.5 11 L 0.5 13 C 0.5 13.3, 0.7 13.5, 1 13.5 L 3 13.5 C 3.2 14.3, 3.5 15, 4 15.7 L 2.6 17.1 C 2.4 17.3, 2.4 17.7, 2.6 17.9 L 4.1 19.4 C 4.3 19.6, 4.7 19.6, 4.9 19.4 L 6.3 18 C 7 18.5, 7.7 18.8, 8.5 19 L 8.5 21 C 8.5 21.3, 8.7 21.5, 9 21.5 L 11 21.5 C 11.3 21.5, 11.5 21.3, 11.5 21 L 11.5 19 C 12.3 18.8, 13 18.5, 13.7 18 L 15.1 19.4 C 15.3 19.6, 15.7 19.6, 15.9 19.4 L 17.4 17.9 C 17.6 17.7, 17.6 17.3, 17.4 17.1 L 16 15.7 C 16.5 15, 16.8 14.3, 17 13.5 L 19 13.5 C 19.3 13.5, 19.5 13.3, 19.5 13 L 19.5 11 C 19.5 10.7, 19.3 10.5, 19 10.5 Z" />
      </g>
        
        <!-- Title -->
        <text x="0" y="65" fill="#18181B" font-family="Arial, Helvetica, sans-serif" font-size="12" font-weight="bold" text-anchor="middle" letter-spacing="1">MAINTAIN</text>
        
        <!-- Description -->
        <text x="0" y="85" fill="#52525B" font-family="Arial, Helvetica, sans-serif" font-size="9" font-weight="bold" text-anchor="middle">
          Monitoring &amp; Scaling
        </text>
      </g>
    
</svg>